<?xml version="1.0" standalone="no"?><!DOCTYPE svg PUBLIC "-//W3C//DTD SVG 1.1//EN" "http://www.w3.org/Graphics/SVG/1.1/DTD/svg11.dtd"><svg t="1648096966546" class="icon" viewBox="0 0 1024 1024" version="1.1" xmlns="http://www.w3.org/2000/svg" p-id="1742" xmlns:xlink="http://www.w3.org/1999/xlink" width="200" height="200"><defs><style type="text/css">@font-face { font-family: feedback-iconfont; src: url("//at.alicdn.com/t/font_1031158_u69w8yhxdu.woff2?t=1630033759944") format("woff2"), url("//at.alicdn.com/t/font_1031158_u69w8yhxdu.woff?t=1630033759944") format("woff"), url("//at.alicdn.com/t/font_1031158_u69w8yhxdu.ttf?t=1630033759944") format("truetype"); }
</style></defs><path d="M510.3616 500.1216m-393.5232 0a393.5232 393.5232 0 1 0 787.0464 0 393.5232 393.5232 0 1 0-787.0464 0Z" fill="#B7B7AE" p-id="1743"></path><path d="M491.8272 441.9584m-311.04 0a311.04 311.04 0 1 0 622.08 0 311.04 311.04 0 1 0-622.08 0Z" fill="#CECECE" p-id="1744"></path><path d="M446.5664 380.928m-183.2448 0a183.2448 183.2448 0 1 0 366.4896 0 183.2448 183.2448 0 1 0-366.4896 0Z" fill="#EAEAEA" p-id="1745"></path><path d="M511.9488 919.7568a414.208 414.208 0 0 1-32.768-1.28c-111.616-8.6016-213.1968-60.2112-286.0032-145.2032S84.992 579.9424 93.5936 468.3264c13.3632-172.6976 128.9216-317.2864 294.4-368.3328 13.5168-4.1984 27.8528 3.4304 32 16.896s-3.4304 27.8528-16.896 32c-145.3056 44.8-246.7328 171.7248-258.4576 323.3792-7.5776 97.9968 23.4496 193.024 87.3984 267.6736s153.088 119.9104 251.0848 127.488c169.216 13.056 324.5056-90.1632 377.6512-251.0848a25.6512 25.6512 0 0 1 32.3584-16.2816 25.6512 25.6512 0 0 1 16.2816 32.3584 418.176 418.176 0 0 1-397.4656 287.3344z" fill="#434A54" p-id="1746"></path><path d="M587.5712 114.2272v325.7344h311.7568c-25.088-163.4304-150.6816-293.6832-311.7568-325.7344z" fill="#5AB3FF" p-id="1747"></path><path d="M602.4704 158.1056l-15.9744 282.4192 212.0192 1.7408c1.28-126.0544-77.8752-239.8208-196.0448-284.16z" fill="#7BD3FF" p-id="1748"></path><path d="M899.328 465.5616h-311.7568c-14.1312 0-25.6-11.4688-25.6-25.6V114.2272c0-7.68 3.4304-14.9504 9.3696-19.8144a25.66656 25.66656 0 0 1 21.248-5.3248c172.032 34.2528 305.4592 173.6704 332.032 346.9824a25.5488 25.5488 0 0 1-5.888 20.5312 25.34912 25.34912 0 0 1-19.4048 8.96z m-286.1568-51.2h255.0784c-30.6176-128.1024-128.6144-230.8096-255.0784-267.5712v267.5712z" fill="#434A54" p-id="1749"></path></svg>